{
  "accessors": [
    {
      "bufferView": 2,
      "componentType": 5126,
      "count": 5844,
      "max": [
        1249.6898193359375,
        1249.6837158203125,
        13.218039512634277
      ],
      "min": [
        -1249.7093505859375,
        -1249.7379150390625,
        -97.7402114868164
      ],
      "type": "VEC3"
    },
    {
      "bufferView": 2,
      "byteOffset": 70128,
      "componentType": 5126,
      "count": 5844,
      "max": [
        0.7429500818252563,
        0.7472715377807617,
        1.0
      ],
      "min": [
        -0.7223355174064636,
        -0.6994002461433411,
        0.6583195328712463
      ],
      "type": "VEC3"
    },
    {
      "bufferView": 3,
      "componentType": 5126,
      "count": 5844,
      "max": [
        1.0,
        0.04282221570611,
        0.7223585844039917,
        1.0
      ],
      "min": [
        0.6674469709396362,
        -0.06270044296979904,
        -0.7446539402008057,
        1.0
      ],
      "type": "VEC4"
    },
    {
      "bufferView": 1,
      "componentType": 5126,
      "count": 5844,
      "max": [
        1.0,
        1.0
      ],
      "min": [
        2.9802322387695313e-08,
        5.960464477539063e-08
      ],
      "type": "VEC2"
    },
    {
      "bufferView": 0,
      "componentType": 5125,
      "count": 34218,
      "type": "SCALAR"
    },
    {
      "bufferView": 2,
      "byteOffset": 140256,
      "componentType": 5126,
      "count": 1124,
      "max": [
        1249.6898193359375,
        1249.6837158203125,
        -0.5310377478599548
      ],
      "min": [
        -1249.7093505859375,
        -1249.7379150390625,
        -156.8312530517578
      ],
      "type": "VEC3"
    },
    {
      "bufferView": 2,
      "byteOffset": 153744,
      "componentType": 5126,
      "count": 1124,
      "max": [
        1.0,
        1.0,
        4.3738665467252247e-10
      ],
      "min": [
        -1.0,
        -1.0,
        -1.0
      ],
      "type": "VEC3"
    },
    {
      "bufferView": 1,
      "byteOffset": 46752,
      "componentType": 5126,
      "count": 1124,
      "max": [
        0.9998651146888733,
        0.9998596906661987
      ],
      "min": [
        0.00013503432273864746,
        0.00012671947479248047
      ],
      "type": "VEC2"
    },
    {
      "bufferView": 0,
      "byteOffset": 136872,
      "componentType": 5125,
      "count": 1686,
      "type": "SCALAR"
    }
  ],
  "asset": {
    "extras": {
      "author": "SebastianSosnowski (https://sketchfab.com/SebastianSosnowski)",
      "license": "CC-BY-4.0 (http://creativecommons.org/licenses/by/4.0/)",
      "source": "https://sketchfab.com/3d-models/langrenus-crater-on-the-moon-4060318ffe71411494816f5a3dacab8d",
      "title": "Langrenus (crater on the Moon)"
    },
    "generator": "Sketchfab-12.82.3",
    "version": "2.0"
  },
  "bufferViews": [
    {
      "buffer": 0,
      "byteLength": 143616,
      "name": "floatBufferViews",
      "target": 34963
    },
    {
      "buffer": 0,
      "byteLength": 55744,
      "byteOffset": 143616,
      "byteStride": 8,
      "name": "floatBufferViews",
      "target": 34962
    },
    {
      "buffer": 0,
      "byteLength": 167232,
      "byteOffset": 199360,
      "byteStride": 12,
      "name": "floatBufferViews",
      "target": 34962
    },
    {
      "buffer": 0,
      "byteLength": 93504,
      "byteOffset": 366592,
      "byteStride": 16,
      "name": "floatBufferViews",
      "target": 34962
    }
  ],
  "buffers": [
    {
      "byteLength": 460096,
      "uri": "scene.bin"
    }
  ],
  "images": [
    {
      "uri": "textures/material_baseColor.jpeg"
    },
    {
      "uri": "textures/material_metallicRoughness.png"
    },
    {
      "uri": "textures/material_normal.jpeg"
    }
  ],
  "materials": [
    {
      "name": "material",
      "normalTexture": {
        "index": 2
      },
      "occlusionTexture": {
        "index": 1
      },
      "pbrMetallicRoughness": {
        "baseColorTexture": {
          "index": 0
        },
        "metallicFactor": 0.22359046744096908,
        "metallicRoughnessTexture": {
          "index": 1
        },
        "roughnessFactor": 0.9110931292322482
      }
    },
    {
      "doubleSided": true,
      "name": "material_1",
      "pbrMetallicRoughness": {
        "baseColorFactor": [
          0.0,
          0.0,
          0.0,
          1.0
        ],
        "metallicFactor": 0.734654393020327,
        "roughnessFactor": 0.12624495780680567
      }
    }
  ],
  "meshes": [
    {
      "name": "LAngrenus_LP_1_0",
      "primitives": [
        {
          "attributes": {
            "NORMAL": 1,
            "POSITION": 0,
            "TANGENT": 2,
            "TEXCOORD_0": 3
          },
          "indices": 4,
          "material": 0,
          "mode": 4
        }
      ]
    },
    {
      "name": "LAngrenus_LP_2_0",
      "primitives": [
        {
          "attributes": {
            "NORMAL": 6,
            "POSITION": 5,
            "TEXCOORD_0": 7
          },
          "indices": 8,
          "material": 1,
          "mode": 4
        }
      ]
    }
  ],
  "nodes": [
    {
      "children": [
        1
      ],
      "matrix": [
        1.0,
        0.0,
        0.0,
        0.0,
        0.0,
        2.220446049250313e-16,
        -1.0,
        0.0,
        0.0,
        1.0,
        2.220446049250313e-16,
        0.0,
        0.0,
        0.0,
        0.0,
        1.0
      ],
      "name": "Sketchfab_model"
    },
    {
      "children": [
        2
      ],
      "matrix": [
        1.0,
        0.0,
        0.0,
        0.0,
        0.0,
        0.0,
        1.0,
        0.0,
        0.0,
        -1.0,
        0.0,
        0.0,
        0.0,
        0.0,
        0.0,
        1.0
      ],
      "name": "ff4a331737784e2ba6360bd1369aa3b8.fbx"
    },
    {
      "children": [
        3
      ],
      "name": "RootNode"
    },
    {
      "children": [
        4,
        5
      ],
      "matrix": [
        1.0,
        0.0,
        0.0,
        0.0,
        0.0,
        2.220446049250313e-16,
        -1.0,
        0.0,
        0.0,
        1.0,
        2.220446049250313e-16,
        0.0,
        0.0,
        0.0,
        0.0,
        1.0
      ],
      "name": "LAngrenus_LP"
    },
    {
      "mesh": 0,
      "name": "LAngrenus_LP_1_0"
    },
    {
      "mesh": 1,
      "name": "LAngrenus_LP_2_0"
    }
  ],
  "samplers": [
    {
      "magFilter": 9729,
      "minFilter": 9987,
      "wrapS": 10497,
      "wrapT": 10497
    }
  ],
  "scene": 0,
  "scenes": [
    {
      "name": "Sketchfab_Scene",
      "nodes": [
        0
      ]
    }
  ],
  "textures": [
    {
      "sampler": 0,
      "source": 0
    },
    {
      "sampler": 0,
      "source": 1
    },
    {
      "sampler": 0,
      "source": 2
    }
  ]
}
