{
  "accessors": [
    {
      "bufferView": 2,
      "componentType": 5126,
      "count": 5366,
      "max": [
        172.56607055664063,
        234.7860870361328,
        300.3138122558594
      ],
      "min": [
        -172.56607055664063,
        13.694214820861816,
        -328.9710388183594
      ],
      "type": "VEC3"
    },
    {
      "bufferView": 2,
      "byteOffset": 64392,
      "componentType": 5126,
      "count": 5366,
      "max": [
        1.0,
        1.0,
        1.0
      ],
      "min": [
        -1.0,
        -1.0,
        -1.0
      ],
      "type": "VEC3"
    },
    {
      "bufferView": 3,
      "componentType": 5126,
      "count": 5366,
      "max": [
        1.0,
        1.0,
        1.0,
        1.0
      ],
      "min": [
        -1.0,
        -1.0,
        -0.9997683167457581,
        -1.0
      ],
      "type": "VEC4"
    },
    {
      "bufferView": 1,
      "componentType": 5126,
      "count": 5366,
      "max": [
        0.9945456385612488,
        0.997197151184082
      ],
      "min": [
        0.0017140856944024563,
        0.0027964944019913673
      ],
      "type": "VEC2"
    },
    {
      "bufferView": 1,
      "byteOffset": 42928,
      "componentType": 5126,
      "count": 5366,
      "max": [
        0.9945456385612488,
        0.997197151184082
      ],
      "min": [
        0.0017140856944024563,
        0.0027964944019913673
      ],
      "type": "VEC2"
    },
    {
      "bufferView": 1,
      "byteOffset": 85856,
      "componentType": 5126,
      "count": 5366,
      "max": [
        0.9945456385612488,
        0.997197151184082
      ],
      "min": [
        0.0017140856944024563,
        0.0027964944019913673
      ],
      "type": "VEC2"
    },
    {
      "bufferView": 1,
      "byteOffset": 128784,
      "componentType": 5126,
      "count": 5366,
      "max": [
        0.9945456385612488,
        0.997197151184082
      ],
      "min": [
        0.0017140856944024563,
        0.0027964944019913673
      ],
      "type": "VEC2"
    },
    {
      "bufferView": 0,
      "componentType": 5125,
      "count": 14448,
      "type": "SCALAR"
    },
    {
      "bufferView": 2,
      "byteOffset": 128784,
      "componentType": 5126,
      "count": 1439,
      "max": [
        30.599712371826172,
        63.62882995605469,
        63.65326690673828
      ],
      "min": [
        -40.61423110961914,
        -63.58805465698242,
        -63.5635986328125
      ],
      "type": "VEC3"
    },
    {
      "bufferView": 2,
      "byteOffset": 146052,
      "componentType": 5126,
      "count": 1439,
      "max": [
        1.0,
        0.9967354536056519,
        0.9967354536056519
      ],
      "min": [
        -0.9999871850013733,
        -0.9967354536056519,
        -0.9967354536056519
      ],
      "type": "VEC3"
    },
    {
      "bufferView": 3,
      "byteOffset": 85856,
      "componentType": 5126,
      "count": 1439,
      "max": [
        1.0,
        0.9975932240486145,
        0.9999716281890869,
        -1.0
      ],
      "min": [
        -0.9758815765380859,
        -0.9975747466087341,
        -0.9975934028625488,
        -1.0
      ],
      "type": "VEC4"
    },
    {
      "bufferView": 1,
      "byteOffset": 171712,
      "componentType": 5126,
      "count": 1439,
      "max": [
        0.9904028177261353,
        0.9961724281311035
      ],
      "min": [
        0.01297718845307827,
        0.005114205181598663
      ],
      "type": "VEC2"
    },
    {
      "bufferView": 1,
      "byteOffset": 183224,
      "componentType": 5126,
      "count": 1439,
      "max": [
        0.9904028177261353,
        0.9961724281311035
      ],
      "min": [
        0.01297718845307827,
        0.005114205181598663
      ],
      "type": "VEC2"
    },
    {
      "bufferView": 1,
      "byteOffset": 194736,
      "componentType": 5126,
      "count": 1439,
      "max": [
        0.9904028177261353,
        0.9961724281311035
      ],
      "min": [
        0.01297718845307827,
        0.005114205181598663
      ],
      "type": "VEC2"
    },
    {
      "bufferView": 0,
      "byteOffset": 57792,
      "componentType": 5125,
      "count": 5880,
      "type": "SCALAR"
    },
    {
      "bufferView": 2,
      "byteOffset": 163320,
      "componentType": 5126,
      "count": 13306,
      "max": [
        156.36851501464844,
        260.9383239746094,
        294.8535461425781
      ],
      "min": [
        -156.4744415283203,
        15.8909912109375,
        -332.5682067871094
      ],
      "type": "VEC3"
    },
    {
      "bufferView": 2,
      "byteOffset": 322992,
      "componentType": 5126,
      "count": 13306,
      "max": [
        1.0,
        1.0,
        1.0
      ],
      "min": [
        -1.0,
        -1.0,
        -1.0
      ],
      "type": "VEC3"
    },
    {
      "bufferView": 1,
      "byteOffset": 206248,
      "componentType": 5126,
      "count": 13306,
      "max": [
        0.997761070728302,
        0.9964995384216309
      ],
      "min": [
        0.009436208754777908,
        0.003595639020204544
      ],
      "type": "VEC2"
    },
    {
      "bufferView": 1,
      "byteOffset": 312696,
      "componentType": 5126,
      "count": 13306,
      "max": [
        0.997761070728302,
        0.9964995384216309
      ],
      "min": [
        0.009436208754777908,
        0.003595639020204544
      ],
      "type": "VEC2"
    },
    {
      "bufferView": 1,
      "byteOffset": 419144,
      "componentType": 5126,
      "count": 13306,
      "max": [
        0.997761070728302,
        0.9964995384216309
      ],
      "min": [
        0.009436208754777908,
        0.003595639020204544
      ],
      "type": "VEC2"
    },
    {
      "bufferView": 1,
      "byteOffset": 525592,
      "componentType": 5126,
      "count": 13306,
      "max": [
        0.997761070728302,
        0.9964995384216309
      ],
      "min": [
        0.009436208754777908,
        0.003595639020204544
      ],
      "type": "VEC2"
    },
    {
      "bufferView": 0,
      "byteOffset": 81312,
      "componentType": 5125,
      "count": 43062,
      "type": "SCALAR"
    },
    {
      "bufferView": 2,
      "byteOffset": 482664,
      "componentType": 5126,
      "count": 1439,
      "max": [
        30.599712371826172,
        63.62882995605469,
        63.65326690673828
      ],
      "min": [
        -40.61423110961914,
        -63.58805465698242,
        -63.5635986328125
      ],
      "type": "VEC3"
    },
    {
      "bufferView": 2,
      "byteOffset": 499932,
      "componentType": 5126,
      "count": 1439,
      "max": [
        1.0,
        0.9967354536056519,
        0.9967354536056519
      ],
      "min": [
        -0.9999871850013733,
        -0.9967354536056519,
        -0.9967354536056519
      ],
      "type": "VEC3"
    },
    {
      "bufferView": 3,
      "byteOffset": 108880,
      "componentType": 5126,
      "count": 1439,
      "max": [
        1.0,
        0.9975932240486145,
        0.9999716281890869,
        -1.0
      ],
      "min": [
        -0.9758815765380859,
        -0.9975747466087341,
        -0.9975934028625488,
        -1.0
      ],
      "type": "VEC4"
    },
    {
      "bufferView": 1,
      "byteOffset": 632040,
      "componentType": 5126,
      "count": 1439,
      "max": [
        0.9904028177261353,
        0.9961724281311035
      ],
      "min": [
        0.01297718845307827,
        0.005114205181598663
      ],
      "type": "VEC2"
    },
    {
      "bufferView": 1,
      "byteOffset": 643552,
      "componentType": 5126,
      "count": 1439,
      "max": [
        0.9904028177261353,
        0.9961724281311035
      ],
      "min": [
        0.01297718845307827,
        0.005114205181598663
      ],
      "type": "VEC2"
    },
    {
      "bufferView": 1,
      "byteOffset": 655064,
      "componentType": 5126,
      "count": 1439,
      "max": [
        0.9904028177261353,
        0.9961724281311035
      ],
      "min": [
        0.01297718845307827,
        0.005114205181598663
      ],
      "type": "VEC2"
    },
    {
      "bufferView": 0,
      "byteOffset": 253560,
      "componentType": 5125,
      "count": 5880,
      "type": "SCALAR"
    },
    {
      "bufferView": 2,
      "byteOffset": 517200,
      "componentType": 5126,
      "count": 1439,
      "max": [
        40.61423110961914,
        63.62882995605469,
        63.65326690673828
      ],
      "min": [
        -30.599712371826172,
        -63.58805465698242,
        -63.5635986328125
      ],
      "type": "VEC3"
    },
    {
      "bufferView": 2,
      "byteOffset": 534468,
      "componentType": 5126,
      "count": 1439,
      "max": [
        0.9999871850013733,
        0.9967353940010071,
        0.9967354536056519
      ],
      "min": [
        -1.0,
        -0.9967354536056519,
        -0.9967354536056519
      ],
      "type": "VEC3"
    },
    {
      "bufferView": 3,
      "byteOffset": 131904,
      "componentType": 5126,
      "count": 1439,
      "max": [
        0.9758815765380859,
        0.9975932240486145,
        0.9999716281890869,
        1.0
      ],
      "min": [
        -1.0,
        -0.9975747466087341,
        -0.9975932836532593,
        1.0
      ],
      "type": "VEC4"
    },
    {
      "bufferView": 1,
      "byteOffset": 666576,
      "componentType": 5126,
      "count": 1439,
      "max": [
        0.9904028177261353,
        0.9961724281311035
      ],
      "min": [
        0.01297718845307827,
        0.005114205181598663
      ],
      "type": "VEC2"
    },
    {
      "bufferView": 1,
      "byteOffset": 678088,
      "componentType": 5126,
      "count": 1439,
      "max": [
        0.9904028177261353,
        0.9961724281311035
      ],
      "min": [
        0.01297718845307827,
        0.005114205181598663
      ],
      "type": "VEC2"
    },
    {
      "bufferView": 1,
      "byteOffset": 689600,
      "componentType": 5126,
      "count": 1439,
      "max": [
        0.9904028177261353,
        0.9961724281311035
      ],
      "min": [
        0.01297718845307827,
        0.005114205181598663
      ],
      "type": "VEC2"
    },
    {
      "bufferView": 0,
      "byteOffset": 277080,
      "componentType": 5125,
      "count": 5880,
      "type": "SCALAR"
    },
    {
      "bufferView": 2,
      "byteOffset": 551736,
      "componentType": 5126,
      "count": 1439,
      "max": [
        40.61423110961914,
        63.62882995605469,
        63.65326690673828
      ],
      "min": [
        -30.599712371826172,
        -63.58805465698242,
        -63.5635986328125
      ],
      "type": "VEC3"
    },
    {
      "bufferView": 2,
      "byteOffset": 569004,
      "componentType": 5126,
      "count": 1439,
      "max": [
        0.9999871850013733,
        0.9967353940010071,
        0.9967354536056519
      ],
      "min": [
        -1.0,
        -0.9967354536056519,
        -0.9967354536056519
      ],
      "type": "VEC3"
    },
    {
      "bufferView": 3,
      "byteOffset": 154928,
      "componentType": 5126,
      "count": 1439,
      "max": [
        0.9758815765380859,
        0.9975932240486145,
        0.9999716281890869,
        1.0
      ],
      "min": [
        -1.0,
        -0.9975747466087341,
        -0.9975932836532593,
        1.0
      ],
      "type": "VEC4"
    },
    {
      "bufferView": 1,
      "byteOffset": 701112,
      "componentType": 5126,
      "count": 1439,
      "max": [
        0.9904028177261353,
        0.9961724281311035
      ],
      "min": [
        0.01297718845307827,
        0.005114205181598663
      ],
      "type": "VEC2"
    },
    {
      "bufferView": 1,
      "byteOffset": 712624,
      "componentType": 5126,
      "count": 1439,
      "max": [
        0.9904028177261353,
        0.9961724281311035
      ],
      "min": [
        0.01297718845307827,
        0.005114205181598663
      ],
      "type": "VEC2"
    },
    {
      "bufferView": 1,
      "byteOffset": 724136,
      "componentType": 5126,
      "count": 1439,
      "max": [
        0.9904028177261353,
        0.9961724281311035
      ],
      "min": [
        0.01297718845307827,
        0.005114205181598663
      ],
      "type": "VEC2"
    },
    {
      "bufferView": 0,
      "byteOffset": 300600,
      "componentType": 5125,
      "count": 5880,
      "type": "SCALAR"
    }
  ],
  "asset": {
    "extras": {
      "author": "ferofluid (https://sketchfab.com/ferofluid)",
      "license": "CC-BY-4.0 (http://creativecommons.org/licenses/by/4.0/)",
      "source": "https://sketchfab.com/3d-models/green-bug-stylized-scifi-car-free-34f1a7734d474b34a8291f613a581ccb",
      "title": "Green Bug Stylized Scifi Car Free"
    },
    "generator": "Sketchfab-12.63.0",
    "version": "2.0"
  },
  "bufferViews": [
    {
      "buffer": 0,
      "byteLength": 324120,
      "name": "floatBufferViews",
      "target": 34963
    },
    {
      "buffer": 0,
      "byteLength": 735648,
      "byteOffset": 324120,
      "byteStride": 8,
      "name": "floatBufferViews",
      "target": 34962
    },
    {
      "buffer": 0,
      "byteLength": 586272,
      "byteOffset": 1059768,
      "byteStride": 12,
      "name": "floatBufferViews",
      "target": 34962
    },
    {
      "buffer": 0,
      "byteLength": 177952,
      "byteOffset": 1646040,
      "byteStride": 16,
      "name": "floatBufferViews",
      "target": 34962
    }
  ],
  "buffers": [
    {
      "byteLength": 1823992,
      "uri": "scene.bin"
    }
  ],
  "images": [
    {
      "uri": "textures/MatMain_baseColor.png"
    },
    {
      "uri": "textures/MatMain_metallicRoughness.png"
    },
    {
      "uri": "textures/MatMain_emissive.png"
    },
    {
      "uri": "textures/MatMain_normal.png"
    },
    {
      "uri": "textures/MatWheel_baseColor.png"
    },
    {
      "uri": "textures/MatWheel_metallicRoughness.png"
    },
    {
      "uri": "textures/MatWheel_normal.png"
    },
    {
      "uri": "textures/MatSec_baseColor.png"
    },
    {
      "uri": "textures/MatSec_metallicRoughness.png"
    },
    {
      "uri": "textures/MatSec_emissive.png"
    }
  ],
  "materials": [
    {
      "doubleSided": true,
      "emissiveFactor": [
        1.0,
        1.0,
        1.0
      ],
      "emissiveTexture": {
        "index": 2
      },
      "name": "MatMain",
      "normalTexture": {
        "index": 3
      },
      "pbrMetallicRoughness": {
        "baseColorTexture": {
          "index": 0
        },
        "metallicRoughnessTexture": {
          "index": 1
        }
      }
    },
    {
      "doubleSided": true,
      "name": "MatWheel",
      "normalTexture": {
        "index": 6
      },
      "pbrMetallicRoughness": {
        "baseColorTexture": {
          "index": 4
        },
        "metallicRoughnessTexture": {
          "index": 5
        }
      }
    },
    {
      "doubleSided": true,
      "emissiveFactor": [
        1.0,
        1.0,
        1.0
      ],
      "emissiveTexture": {
        "index": 9
      },
      "name": "MatSec",
      "pbrMetallicRoughness": {
        "baseColorTexture": {
          "index": 7
        },
        "metallicRoughnessTexture": {
          "index": 8
        }
      }
    }
  ],
  "meshes": [
    {
      "name": "Plane_MatMain_0",
      "primitives": [
        {
          "attributes": {
            "NORMAL": 1,
            "POSITION": 0,
            "TANGENT": 2,
            "TEXCOORD_0": 3,
            "TEXCOORD_1": 4,
            "TEXCOORD_2": 5,
            "TEXCOORD_3": 6
          },
          "indices": 7,
          "material": 0,
          "mode": 4
        }
      ]
    },
    {
      "name": "Circle.002_MatWheel_0",
      "primitives": [
        {
          "attributes": {
            "NORMAL": 9,
            "POSITION": 8,
            "TANGENT": 10,
            "TEXCOORD_0": 11,
            "TEXCOORD_1": 12,
            "TEXCOORD_2": 13
          },
          "indices": 14,
          "material": 1,
          "mode": 4
        }
      ]
    },
    {
      "name": "Plane.007_MatSec_0",
      "primitives": [
        {
          "attributes": {
            "NORMAL": 16,
            "POSITION": 15,
            "TEXCOORD_0": 17,
            "TEXCOORD_1": 18,
            "TEXCOORD_2": 19,
            "TEXCOORD_3": 20
          },
          "indices": 21,
          "material": 2,
          "mode": 4
        }
      ]
    },
    {
      "name": "Circle.001_MatWheel_0",
      "primitives": [
        {
          "attributes": {
            "NORMAL": 23,
            "POSITION": 22,
            "TANGENT": 24,
            "TEXCOORD_0": 25,
            "TEXCOORD_1": 26,
            "TEXCOORD_2": 27
          },
          "indices": 28,
          "material": 1,
          "mode": 4
        }
      ]
    },
    {
      "name": "Circle.003_MatWheel_0",
      "primitives": [
        {
          "attributes": {
            "NORMAL": 30,
            "POSITION": 29,
            "TANGENT": 31,
            "TEXCOORD_0": 32,
            "TEXCOORD_1": 33,
            "TEXCOORD_2": 34
          },
          "indices": 35,
          "material": 1,
          "mode": 4
        }
      ]
    },
    {
      "name": "Circle.004_MatWheel_0",
      "primitives": [
        {
          "attributes": {
            "NORMAL": 37,
            "POSITION": 36,
            "TANGENT": 38,
            "TEXCOORD_0": 39,
            "TEXCOORD_1": 40,
            "TEXCOORD_2": 41
          },
          "indices": 42,
          "material": 1,
          "mode": 4
        }
      ]
    }
  ],
  "nodes": [
    {
      "children": [
        1
      ],
      "matrix": [
        1.0,
        0.0,
        0.0,
        0.0,
        0.0,
        2.220446049250313e-16,
        -1.0,
        0.0,
        0.0,
        1.0,
        2.220446049250313e-16,
        0.0,
        0.0,
        0.0,
        0.0,
        1.0
      ],
      "name": "Sketchfab_model"
    },
    {
      "children": [
        2
      ],
      "matrix": [
        1.0,
        0.0,
        0.0,
        0.0,
        0.0,
        0.0,
        1.0,
        0.0,
        0.0,
        -1.0,
        0.0,
        0.0,
        0.0,
        0.0,
        0.0,
        1.0
      ],
      "name": "559b447ff0a84507b54a465ae048ca65.fbx"
    },
    {
      "children": [
        3,
        5,
        7,
        9,
        11,
        13
      ],
      "name": "RootNode"
    },
    {
      "children": [
        4
      ],
      "name": "Plane"
    },
    {
      "mesh": 0,
      "name": "Plane_MatMain_0"
    },
    {
      "children": [
        6
      ],
      "matrix": [
        1.0,
        0.0,
        0.0,
        0.0,
        0.0,
        1.0,
        0.0,
        0.0,
        0.0,
        0.0,
        1.0,
        0.0,
        128.3297576904297,
        64.69442749023438,
        165.16920471191406,
        1.0
      ],
      "name": "Circle.002"
    },
    {
      "mesh": 1,
      "name": "Circle.002_MatWheel_0"
    },
    {
      "children": [
        8
      ],
      "name": "Plane.007"
    },
    {
      "mesh": 2,
      "name": "Plane.007_MatSec_0"
    },
    {
      "children": [
        10
      ],
      "matrix": [
        1.0,
        0.0,
        0.0,
        0.0,
        0.0,
        1.0,
        0.0,
        0.0,
        0.0,
        0.0,
        1.0,
        0.0,
        128.3297576904297,
        64.69442749023438,
        -165.83740234375,
        1.0
      ],
      "name": "Circle.001"
    },
    {
      "mesh": 3,
      "name": "Circle.001_MatWheel_0"
    },
    {
      "children": [
        12
      ],
      "matrix": [
        1.0,
        0.0,
        0.0,
        0.0,
        0.0,
        1.0,
        0.0,
        0.0,
        0.0,
        0.0,
        1.0,
        0.0,
        -132.7371063232422,
        64.69442749023438,
        165.16920471191406,
        1.0
      ],
      "name": "Circle.003"
    },
    {
      "mesh": 4,
      "name": "Circle.003_MatWheel_0"
    },
    {
      "children": [
        14
      ],
      "matrix": [
        1.0,
        0.0,
        0.0,
        0.0,
        0.0,
        1.0,
        0.0,
        0.0,
        0.0,
        0.0,
        1.0,
        0.0,
        -132.7371063232422,
        64.69442749023438,
        -165.83740234375,
        1.0
      ],
      "name": "Circle.004"
    },
    {
      "mesh": 5,
      "name": "Circle.004_MatWheel_0"
    }
  ],
  "samplers": [
    {
      "magFilter": 9729,
      "minFilter": 9987,
      "wrapS": 10497,
      "wrapT": 10497
    }
  ],
  "scene": 0,
  "scenes": [
    {
      "name": "Sketchfab_Scene",
      "nodes": [
        0
      ]
    }
  ],
  "textures": [
    {
      "sampler": 0,
      "source": 0
    },
    {
      "sampler": 0,
      "source": 1
    },
    {
      "sampler": 0,
      "source": 2
    },
    {
      "sampler": 0,
      "source": 3
    },
    {
      "sampler": 0,
      "source": 4
    },
    {
      "sampler": 0,
      "source": 5
    },
    {
      "sampler": 0,
      "source": 6
    },
    {
      "sampler": 0,
      "source": 7
    },
    {
      "sampler": 0,
      "source": 8
    },
    {
      "sampler": 0,
      "source": 9
    }
  ]
}
